<svg version="1.1" xmlns="http://www.w3.org/2000/svg" xmlns:xlink="http://www.w3.org/1999/xlink" width="3370" height="2000">

	<style type="text/css"><![CDATA[
		line {
			stroke: rgba(0,0,0,0.1);
			stroke-width: 0.85px;
		}
	]]></style>

	<!-- Center line -->
	<line x1="1685" y1="0" x2="1685" y2="2000"/>

	<!-- Lines -->
	<line x1="0" y1="2000" x2="1685" y2="315" />
	<line x1="3370" y1="2000" x2="1685" y2="315" />
	<line x1="75" y1="2000" x2="1685" y2="390" />
	<line x1="3295" y1="2000" x2="1685" y2="390" />
	<line x1="150" y1="2000" x2="1685" y2="465" />
	<line x1="3220" y1="2000" x2="1685" y2="465" />
	<line x1="225" y1="2000" x2="1685" y2="540" />
	<line x1="3145" y1="2000" x2="1685" y2="540" />
	<line x1="300" y1="2000" x2="1685" y2="615" />
	<line x1="3070" y1="2000" x2="1685" y2="615" />
	<line x1="375" y1="2000" x2="1685" y2="690" />
	<line x1="2995" y1="2000" x2="1685" y2="690" />
	<line x1="450" y1="2000" x2="1685" y2="765" />
	<line x1="2920" y1="2000" x2="1685" y2="765" />
	<line x1="525" y1="2000" x2="1685" y2="840" />
	<line x1="2845" y1="2000" x2="1685" y2="840" />
	<line x1="600" y1="2000" x2="1685" y2="915" />
	<line x1="2770" y1="2000" x2="1685" y2="915" />
	<line x1="675" y1="2000" x2="1685" y2="990" />
	<line x1="2695" y1="2000" x2="1685" y2="990" />
	<line x1="750" y1="2000" x2="1685" y2="1065" />
	<line x1="2620" y1="2000" x2="1685" y2="1065" />
	<line x1="825" y1="2000" x2="1685" y2="1140" />
	<line x1="2545" y1="2000" x2="1685" y2="1140" />
	<line x1="900" y1="2000" x2="1685" y2="1215" />
	<line x1="2470" y1="2000" x2="1685" y2="1215" />
	<line x1="975" y1="2000" x2="1685" y2="1290" />
	<line x1="2395" y1="2000" x2="1685" y2="1290" />
	<line x1="1050" y1="2000" x2="1685" y2="1365" />
	<line x1="2320" y1="2000" x2="1685" y2="1365" />
	<line x1="1125" y1="2000" x2="1685" y2="1440" />
	<line x1="2245" y1="2000" x2="1685" y2="1440" />
	<line x1="1200" y1="2000" x2="1685" y2="1515" />
	<line x1="2170" y1="2000" x2="1685" y2="1515" />
	<line x1="1275" y1="2000" x2="1685" y2="1590" />
	<line x1="2095" y1="2000" x2="1685" y2="1590" />
	<line x1="1350" y1="2000" x2="1685" y2="1665" />
	<line x1="2020" y1="2000" x2="1685" y2="1665" />
	<line x1="1425" y1="2000" x2="1685" y2="1740" />
	<line x1="1945" y1="2000" x2="1685" y2="1740" />
	<line x1="1500" y1="2000" x2="1685" y2="1815" />
	<line x1="1870" y1="2000" x2="1685" y2="1815" />
	<line x1="1575" y1="2000" x2="1685" y2="1890" />
	<line x1="1795" y1="2000" x2="1685" y2="1890" />
	<line x1="1650" y1="2000" x2="1685" y2="1965" />
	<line x1="1720" y1="2000" x2="1685" y2="1965" />

</svg>