<svg version="1.1" xmlns="http://www.w3.org/2000/svg" xmlns:xlink="http://www.w3.org/1999/xlink" width="2630" height="1000">

	<style type="text/css"><![CDATA[
		line {
			stroke: rgba(0,0,0,0.1);
			stroke-width: 0.85px;
		}
	]]></style>

	<!-- Center line -->
	<line x1="1315" y1="0" x2="1315" y2="1000"/>

	<!-- Lines -->
	<line x1="0" y1="0" x2="1315" y2="1315" />
	<line x1="2630" y1="0" x2="1315" y2="1315" />
	<line x1="75" y1="0" x2="1315" y2="1240" />
	<line x1="2555" y1="0" x2="1315" y2="1240" />
	<line x1="150" y1="0" x2="1315" y2="1165" />
	<line x1="2480" y1="0" x2="1315" y2="1165" />
	<line x1="225" y1="0" x2="1315" y2="1090" />
	<line x1="2405" y1="0" x2="1315" y2="1090" />
	<line x1="300" y1="0" x2="1315" y2="1015" />
	<line x1="2330" y1="0" x2="1315" y2="1015" />
	<line x1="375" y1="0" x2="1315" y2="940" />
	<line x1="2255" y1="0" x2="1315" y2="940" />
	<line x1="450" y1="0" x2="1315" y2="865" />
	<line x1="2180" y1="0" x2="1315" y2="865" />
	<line x1="525" y1="0" x2="1315" y2="790" />
	<line x1="2105" y1="0" x2="1315" y2="790" />
	<line x1="600" y1="0" x2="1315" y2="715" />
	<line x1="2030" y1="0" x2="1315" y2="715" />
	<line x1="675" y1="0" x2="1315" y2="640" />
	<line x1="1955" y1="0" x2="1315" y2="640" />
	<line x1="750" y1="0" x2="1315" y2="565" />
	<line x1="1880" y1="0" x2="1315" y2="565" />
	<line x1="825" y1="0" x2="1315" y2="490" />
	<line x1="1805" y1="0" x2="1315" y2="490" />
	<line x1="900" y1="0" x2="1315" y2="415" />
	<line x1="1730" y1="0" x2="1315" y2="415" />
	<line x1="975" y1="0" x2="1315" y2="340" />
	<line x1="1655" y1="0" x2="1315" y2="340" />
	<line x1="1050" y1="0" x2="1315" y2="265" />
	<line x1="1580" y1="0" x2="1315" y2="265" />
	<line x1="1125" y1="0" x2="1315" y2="190" />
	<line x1="1505" y1="0" x2="1315" y2="190" />
	<line x1="1200" y1="0" x2="1315" y2="115" />
	<line x1="1430" y1="0" x2="1315" y2="115" />
	<line x1="1275" y1="0" x2="1315" y2="40" />
	<line x1="1355" y1="0" x2="1315" y2="40" />

</svg>